<svg width="129" height="126" viewBox="0 0 129 126" fill="none" xmlns="http://www.w3.org/2000/svg">
<path d="M63 122.5C95.8609 122.5 122.5 95.8609 122.5 63C122.5 30.1391 95.8609 3.5 63 3.5C30.1391 3.5 3.5 30.1391 3.5 63C3.5 95.8609 30.1391 122.5 63 122.5Z" fill="#5ACD00" stroke="white" stroke-width="7"/>
<circle cx="108" cy="105" r="17.5" fill="white" stroke="#5ACD00" stroke-width="7"/>
<path d="M108 96L110.021 102.219H116.56L111.269 106.062L113.29 112.281L108 108.438L102.71 112.281L104.731 106.062L99.4405 102.219H105.979L108 96Z" fill="#5ACD00"/>
<path d="M63 36C48.0889 36 36 48.0889 36 63C36 77.9111 48.0889 90 63 90C77.9111 90 90 77.9111 90 63C90 48.0889 77.9111 36 63 36ZM72.4222 76.6778C71.6111 77.0444 70.7667 77.3556 69.9 77.5889C66.6111 78.5 63.3222 78.5333 60.0444 77.4667C56.0889 76.1889 53.4667 73.4889 51.9 69.7111C51.6 68.9778 51.4 68.2111 51.1667 67.4444H48.0667C47.5444 67.4444 47.1333 67.0222 47.1333 66.5111V64.4222C47.1333 63.9 47.5556 63.4889 48.0667 63.4889H50.6333C50.6333 62.9111 50.6333 62.3667 50.6333 61.7889H48.0667C47.5444 61.7889 47.1333 61.3667 47.1333 60.8556V58.7667C47.1333 58.2444 47.5556 57.8333 48.0667 57.8333H51.3333L51.4444 57.5111C52.3222 54.7222 53.8333 52.3333 56.1556 50.5333C58 49.1 60.1333 48.3111 62.4222 47.9444C65.6778 47.4222 68.8333 47.8667 71.8889 49.0667C72.0889 49.1444 72.2778 49.2333 72.4667 49.3444C73.2 49.7778 73.3889 50.3222 73.0667 51.1111C72.7222 51.9333 72.3778 52.7667 72 53.5778C71.6778 54.2778 71.2333 54.5 70.4778 54.3333C69.4444 54.1 68.4333 53.7778 67.4 53.5667C65.2222 53.1222 63.0556 53.1 60.9333 53.9333C59.1111 54.6556 58 56.0444 57.2444 57.7778C57.2333 57.8 57.2333 57.8222 57.2333 57.8444H63.5778C64.1 57.8444 64.5111 58.2667 64.5111 58.7778V60.8667C64.5111 61.3889 64.0889 61.8 63.5778 61.8H56.3333C56.3222 62.3556 56.3333 62.9111 56.3333 63.5H63.5889C64.1111 63.5 64.5222 63.9222 64.5222 64.4333V66.5222C64.5222 67.0444 64.1 67.4556 63.5889 67.4556H56.9667C57.7667 69.7444 59.0667 71.5111 61.5111 72.2778C63.4667 72.8889 65.4333 72.8556 67.4111 72.4444C68.4333 72.2333 69.4333 71.9222 70.4556 71.6889C71.2556 71.5111 71.6889 71.7222 72.0222 72.4556C72.4 73.2778 72.7556 74.1111 73.0889 74.9556C73.4 75.7111 73.2 76.3222 72.4222 76.6778Z" fill="white"/>
</svg>
