<svg width="129" height="126" viewBox="0 0 129 126" fill="none" xmlns="http://www.w3.org/2000/svg">
<circle cx="63" cy="63" r="59.5" fill="#5ACD00" stroke="white" stroke-width="7"/>
<circle cx="108" cy="105" r="17.5" fill="white" stroke="#5ACD00" stroke-width="7"/>
<path d="M63.0454 36.0001C48.0078 35.9522 36.0379 48.1361 36.0001 62.8271C35.9824 69.9248 38.3391 76.1611 43.1709 81.3406C48.5651 87.1242 55.3009 90.0387 63.2384 89.9996C78.0125 89.9265 89.9823 77.8763 90 63.0314C90.0176 48.0188 77.8322 35.9787 63.0454 36.0001ZM70.5378 64.2484C70.6223 64.3089 70.6664 64.3392 70.7105 64.3695C71.0321 64.594 71.375 64.7932 71.6726 65.0467C72.3674 65.6394 72.815 66.3999 73.0293 67.2827C73.2765 68.2967 73.2185 69.3157 72.9638 70.3221C72.7053 71.3423 72.1442 72.1784 71.3271 72.8342C70.5668 73.4446 69.6892 73.8318 68.7574 74.0979C67.8546 74.3564 66.9328 74.5116 65.9985 74.5923C65.7476 74.6137 65.7299 74.6351 65.7299 74.8912C65.7299 75.7727 65.7299 76.653 65.7312 77.5345C65.7312 78.1222 65.7287 78.7086 65.7312 79.2963C65.7312 79.4363 65.6959 79.5271 65.5357 79.5271C64.7048 79.5284 63.8751 79.5347 63.0442 79.5322C62.7365 79.5322 62.7025 79.488 62.7037 79.1816C62.7113 77.7703 62.7214 76.3579 62.7302 74.9467C62.7302 74.8962 62.7302 74.847 62.7277 74.7966C62.7226 74.6869 62.6709 74.6225 62.5524 74.6238C61.8337 74.6238 61.115 74.6238 60.3975 74.6238C60.2815 74.6238 60.226 74.6768 60.2273 74.7953C60.2285 75.0072 60.2248 75.2191 60.2248 75.4309C60.2248 76.7122 60.221 77.9923 60.2248 79.2736C60.2248 79.4464 60.1756 79.5359 59.994 79.5271C59.9322 79.5246 59.8692 79.5347 59.8074 79.5347C59.0395 79.5347 58.2704 79.5347 57.5025 79.5334C57.2364 79.5334 57.2251 79.5195 57.2238 79.261C57.2238 77.817 57.2238 76.3743 57.2238 74.9303C57.2238 74.7251 57.1196 74.6221 56.9111 74.6213C55.1181 74.6213 53.325 74.6213 51.532 74.6213C51.0806 74.6213 51.0794 74.6213 51.0781 74.1673C51.0781 73.2857 51.0743 72.4055 51.0794 71.5239C51.0819 71.0535 51.01 71.1065 51.5156 71.0989C52.2457 71.0888 52.9783 71.1014 53.7058 71.0586C54.5822 71.0068 55.0575 70.4734 55.0512 69.5906C55.0348 67.1919 55.0437 64.792 55.0437 62.392C55.0437 60.3805 55.05 58.3677 55.0424 56.3562C55.0399 55.7988 54.7095 55.1934 53.9832 55.1922C53.315 55.1909 52.6479 55.1732 51.9797 55.1657C51.7161 55.1632 51.6531 55.1077 51.6115 54.8504C51.4425 53.8036 51.2735 52.7582 51.0983 51.7127C51.0731 51.5613 51.1235 51.4995 51.266 51.4945C51.3227 51.492 51.3782 51.492 51.4349 51.492C53.2784 51.492 55.1206 51.492 56.964 51.492C57.2213 51.492 57.2238 51.4869 57.2238 51.2271C57.2238 49.7339 57.2238 48.2408 57.2251 46.7476C57.2251 46.6971 57.2112 46.6404 57.2314 46.6C57.2541 46.5546 57.307 46.4916 57.3474 46.4903C58.2212 46.4789 59.095 46.4726 59.9688 46.4726C60.1895 46.4726 60.221 46.5206 60.221 46.7476C60.221 47.8662 60.221 48.9848 60.221 50.1035C60.221 50.4717 60.2185 50.8412 60.2248 51.2095C60.2285 51.4554 60.2702 51.492 60.511 51.4932C61.1415 51.4932 61.7732 51.4945 62.4036 51.4932C62.6999 51.4932 62.7264 51.4642 62.7264 51.1742C62.7264 49.7428 62.7277 48.3126 62.7289 46.8813C62.7289 46.479 62.7365 46.4676 63.1526 46.4701C63.9394 46.4726 64.7262 46.4827 65.513 46.4853C65.653 46.4853 65.7022 46.5458 65.7034 46.6769C65.7072 46.9582 65.7236 47.2382 65.7249 47.5194C65.7274 48.7755 65.7249 50.0316 65.7249 51.2877C65.7249 51.4251 65.7362 51.5273 65.9165 51.5412C66.3705 51.5765 66.8219 51.6332 67.2745 51.6748C68.0399 51.7455 68.7952 51.8665 69.5429 52.0519C70.7357 52.3496 71.858 52.7821 72.8226 53.5779C73.535 54.1656 74.0393 54.8945 74.3836 55.7395C74.6408 56.3726 74.7833 57.0347 74.8551 57.7157C74.9522 58.6351 74.9648 59.5494 74.7555 60.4536C74.5689 61.257 74.2209 61.9821 73.6447 62.5862C72.9348 63.3316 72.0559 63.7793 71.08 64.0618C70.9135 64.1097 70.7521 64.174 70.5365 64.2497L70.5378 64.2484Z" fill="white"/>
<path d="M60.2992 56.5428C60.2992 58.2466 60.2992 59.9517 60.2992 61.6555C60.2992 61.8901 60.3282 61.9216 60.5501 61.9266C61.062 61.938 61.574 61.9683 62.0846 61.9494C63.0001 61.9166 63.9167 61.8787 64.8296 61.7955C65.6707 61.7186 66.4903 61.5155 67.2506 61.1283C67.8962 60.8005 68.4396 60.3527 68.6956 59.6528C69.0714 58.6225 69.0071 57.6426 68.2593 56.7762C67.8533 56.3045 67.325 56.022 66.7551 55.8C65.6833 55.3813 64.5611 55.2426 63.4225 55.1985C62.7491 55.172 62.0758 55.148 61.4025 55.1354C61.1037 55.1304 60.8036 55.1581 60.5047 55.1657C60.3799 55.1682 60.3231 55.2174 60.3231 55.346C60.3257 55.7458 60.3231 56.1443 60.3231 56.5441C60.3143 56.5441 60.3068 56.5441 60.2979 56.5441L60.2992 56.5428Z" fill="white"/>
<path d="M61.7883 71.1645C62.6584 71.0926 63.5334 71.0636 64.3946 70.9375C65.218 70.8177 66.0149 70.5655 66.6618 69.9929C67.0514 69.6486 67.301 69.2173 67.4183 68.7078C67.6011 67.9183 67.4851 67.1793 67.0236 66.5122C66.745 66.1086 66.3453 65.8387 65.9039 65.6319C65.2937 65.3456 64.6493 65.1943 63.9848 65.0921C62.8614 64.9206 61.7316 64.9534 60.6031 64.9559C60.3458 64.9559 60.3004 65.0101 60.303 65.2661C60.3131 67.0519 60.3231 68.839 60.3307 70.6247C60.3332 71.1027 60.3307 71.1027 60.8111 71.104C61.1364 71.104 61.4605 71.104 61.7858 71.104C61.7871 71.1241 61.7883 71.1443 61.7908 71.1645H61.7883Z" fill="white"/>
<path d="M108 96L110.021 102.219H116.56L111.269 106.062L113.29 112.281L108 108.438L102.71 112.281L104.731 106.062L99.4405 102.219H105.979L108 96Z" fill="#5ACD00"/>
</svg>
