<svg width="129" height="126" viewBox="0 0 129 126" fill="none" xmlns="http://www.w3.org/2000/svg">
<circle cx="63" cy="63" r="59.5" fill="#5ACD00" stroke="white" stroke-width="7"/>
<circle cx="63" cy="63" r="27" fill="white"/>
<path d="M64 77C61.3478 77 58.8043 75.9433 56.9289 74.0623C55.0536 72.1814 54 69.6302 54 66.9701C54 60.2836 64 49 64 49C64 49 74 60.2836 74 66.9701C74 69.6302 72.9464 72.1814 71.0711 74.0623C69.1957 75.9433 66.6522 77 64 77Z" fill="#5ACD00"/>
<circle cx="108" cy="105" r="17.5" fill="white" stroke="#5ACD00" stroke-width="7"/>
<path d="M108 96L110.021 102.219H116.56L111.269 106.062L113.29 112.281L108 108.438L102.71 112.281L104.731 106.062L99.4405 102.219H105.979L108 96Z" fill="#5ACD00"/>
</svg>
