<svg width="1483" height="917" viewBox="0 0 1483 917" fill="none" xmlns="http://www.w3.org/2000/svg">
<path d="M792.279 194.406C807.719 199.367 819.234 215.23 832.468 226.462C917.789 305.507 1051.65 292.45 1142.5 363.234C1191.93 407.964 1214.23 473.917 1249.27 529.325C1308.88 625.779 1224.76 592.055 1167.28 570.033C1117.43 549.375 1110.63 581.344 1071.55 537.152C982.007 516.711 882.158 563.917 797.454 514.652C723.579 465.1 660.004 386.09 632.875 301.45C638.207 243.367 742.128 196.7 792.279 194.398V194.406ZM1240.22 587.928C1290.54 585.974 1210.43 486.722 1203.74 462.294C1144.96 336.877 1059.27 330.222 939.195 294.127C855.021 277.352 781.701 179.047 695.452 244.436C662.496 262.462 633.5 297.741 658.284 334.453C695.243 401.77 741.434 471.277 811.957 506.59C891.38 546.716 982.302 515.859 1066.74 519.282C1125.28 536.856 1176.99 580.301 1240.22 587.937V587.928Z" fill="#F0F0F0" fill-opacity="0.64"/>
<path d="M788.822 192.66C724.509 164.418 617.409 194.259 582.273 260.551C558.175 313.247 735.555 534.632 780.451 576.305C848.438 661.813 710.536 650.494 662.843 628.367C603.671 611.549 544.68 564.708 481.443 594.296C420.959 622.756 350.401 637.793 303.308 688.101C291.055 701.844 279.366 717.151 261.017 722.876C274.295 715.083 287.668 705.371 297.212 691.862C356.48 633.736 450.945 595.999 532.001 583.281C597.097 592.011 653.803 630.861 719.342 641.216C795.552 656.549 811.079 606.606 754.521 559.035C697.423 501.838 657.911 431.411 615.055 363.616C491.951 233.777 670.772 163.15 786.452 170.925C850.314 174.808 916.651 152.716 978.724 161.664C1051.75 220.425 1159.92 216.203 1229.15 283.398C1259.55 308.226 1276.26 344.547 1303.66 371.782C1321.22 342.992 1279.29 277.804 1255.72 248.119C1249.4 240.023 1217.16 210.556 1238.51 227.974C1302.72 280.575 1371.47 497.347 1248.61 307.47C1188.51 232.465 1087.16 220.624 1003.07 186.249C972.151 166.26 941.409 159.136 904.78 168.406C867.274 176.876 821.136 175.703 788.831 192.634L788.822 192.66Z" fill="#F0F0F0" fill-opacity="0.64"/>
<path d="M1269.66 820.181C1237.56 828.434 1193.41 823.587 1171.69 852.706C1140.48 888.428 1087.88 899.026 1043.73 911.519C857.139 882.599 665.857 787.066 470.31 837.816C476.363 854.904 518.098 848.041 536.1 855.851C599.146 868.604 533.46 882.217 507.721 885.249C543.143 876.909 591.999 867.961 514.399 854.322C359.702 838.12 533.999 821.927 591.452 821.979C672.066 822.84 752.098 838.034 830.193 857.18C939.29 880.219 1058.4 945.321 1158.14 862.879C1180.82 824.673 1230.11 825.324 1269.66 820.181H1269.66Z" fill="#F0F0F0" fill-opacity="0.64"/>
<path d="M220.949 713.016C257.439 702.852 227.618 660.406 254.651 642.232C325.235 597.632 410.564 583.307 485.985 548.324C601.569 521.584 654.507 630.331 580.458 418.936C543.039 360.541 474.348 220.624 488.277 385.282C453.42 460.114 327.284 424.791 259.723 425.321C206.281 418.988 148.645 414.975 121.734 471.685C141.559 404.95 235.955 418.276 298.193 426.094C355.733 427.571 458.76 448.638 486.384 384.7C481.382 258.396 503.396 297.975 557.003 374.831C590.036 425.217 618.555 487.018 613.648 548.384C597.166 575.28 553.442 536.952 526.305 543.415C434.853 562.197 340.032 601.889 256.353 643.761C230.119 659.459 258.498 709.02 220.957 712.998L220.949 713.016Z" fill="#F0F0F0" fill-opacity="0.64"/>
<path d="M1399.34 579.519C1412.48 518.787 1394.63 451.756 1367.28 398.547C1375.66 454.936 1396.55 511.759 1383.18 569.225C1379.32 579.684 1383.31 563.995 1384.02 559.686C1390.64 470.668 1362.1 379.331 1325.74 298.905C1298.28 246.365 1252.45 206.968 1204.15 174.148C1198.57 169.648 1170.65 151.187 1187.54 155.392C1276.74 198.924 1334.08 280.948 1363.83 373.797C1386.4 438.613 1418.99 510.343 1399.34 579.528V579.519ZM1291.81 243.333C1278.16 219.356 1209.71 163.523 1196.48 165.382C1229.61 189.715 1263.08 213.657 1291.81 243.333Z" fill="#F0F0F0" fill-opacity="0.64"/>
<path d="M206.255 674.496C161.376 613 203.016 601.672 256.405 581.396C299.478 561.901 344.097 544.649 384.642 520.185C418.962 485.662 316.464 502.941 295.232 497.295C237.552 498.606 176.443 485.732 122.455 511.481C19.8703 553.414 154.75 487.487 197.467 492.821C252.932 493.559 308.362 492.795 363.801 493.794C378.173 496.27 419.448 486.714 419.031 504.357C361.717 546.377 290.099 567.574 225.265 596.268C176.886 610.063 186.317 639.027 206.255 674.488V674.496Z" fill="#F0F0F0" fill-opacity="0.64"/>
<path d="M150.018 732.475C310.681 796.726 404.303 653.569 547.337 638.758C777.976 705.519 704.674 729.087 962.798 664.836C1021.53 643.831 1104.23 730.885 1143.6 662.048C1152.11 629.471 1189.2 618.038 1215.58 627.586C1188.6 622.79 1158.33 626.404 1149.18 656.671C1114.32 738.721 1021.22 643.97 960.045 667.165C731.881 725.734 767.06 712.712 557.411 642.814C412.579 644.256 313.364 803.901 150.026 732.475H150.018Z" fill="#F0F0F0" fill-opacity="0.64"/>
<path d="M705.742 793.92C830.523 810.052 957.188 823.456 1083.08 816.454C1194.82 801.408 1312.09 806.403 1419.49 769.691C1514.76 722.676 1399.95 716.482 1358.82 702.252C1346.09 695.242 1362.5 678.875 1368.03 671.221C1364.52 682.115 1348.6 698.143 1366.7 703.616C1448.11 718.94 1517.64 734.708 1394.65 780.246C1288.48 804.179 1178.22 807.298 1070.11 818.513C949.442 823.474 822.812 812.171 705.742 793.92Z" fill="#F0F0F0" fill-opacity="0.64"/>
<path d="M324.775 125.456C365.911 100.402 397.243 134.022 427.263 158.163C433.238 162.333 457.692 164.809 446.021 174.634C405.449 197.612 376.931 129.27 324.775 125.456ZM442.122 171.35C420.525 161.334 374.682 104.824 364.252 131.937C391.616 141.284 409.852 191.157 442.122 171.35Z" fill="#F0F0F0" fill-opacity="0.64"/>
<path d="M459.75 280.627C466.697 218.001 532.8 174.625 592.807 176.98C538.731 198.854 485.655 227.617 459.75 280.627ZM540.772 195.127C512.705 192.313 478.456 228.147 470.501 255.755C489.649 234.315 512.601 209.374 540.772 195.127Z" fill="#F0F0F0" fill-opacity="0.64"/>
<path d="M446.846 11.245C557.967 45.6811 669.539 6.98829 782.613 14.1205C802.144 15.8406 884.086 16.7006 827.145 35.908C858.824 47.3491 905.674 36.7507 942 36.3076C992.923 33.215 788.544 52.2921 814.57 35.2652C871.459 11.7576 739.306 15.5018 720.21 15.884C628.229 19.9149 536.517 43.492 446.855 11.2537L446.846 11.245Z" fill="#F0F0F0" fill-opacity="0.64"/>
<path d="M107.448 409.241C107.266 438.022 90.3844 490.91 52.6089 472.944C45.7399 463.527 91.0096 459.036 91.7825 430.916C95.6469 414.836 98.4866 360.723 107.448 409.241ZM100.371 421.725C91.3136 438.951 84.6356 461.008 62.0398 467.915C72.973 490.866 109.576 441.783 100.371 421.725Z" fill="#F0F0F0" fill-opacity="0.64"/>
<path d="M731.603 775.833C751.915 785.45 1483.35 790.323 1333.91 730.746C1488.6 788.542 754.39 790.219 731.603 775.833Z" fill="#F0F0F0" fill-opacity="0.64"/>
<path d="M379.449 909.885C488.399 912.822 696.685 858.379 782.552 915.158C659.17 864.356 511.012 913.378 379.449 909.885Z" fill="#F0F0F0" fill-opacity="0.64"/>
<path d="M78.6872 828.634C43.1348 771.489 241.469 832.778 271.82 819.868C404.65 815.629 532.47 748.042 665.501 787.873C547.398 756.773 434.584 800.756 318.27 817.445C280.217 840.309 41.7193 773.8 78.6872 828.625V828.634Z" fill="#F0F0F0" fill-opacity="0.64"/>
<path d="M1418.85 801.234C1530.36 779.273 1645.35 743.056 1479.03 676.052C1397.95 677.806 1428.53 675.756 1489.01 674.366C1508.03 671.369 1500.64 686.806 1511.56 693.226C1651.28 743.247 1481.2 798.237 1418.84 801.234H1418.85Z" fill="#F0F0F0" fill-opacity="0.64"/>
<path d="M1571 795.605C1466.34 856.459 1333.35 812.528 1224.62 868.308C1325.25 810.947 1468.44 852.315 1571 795.605Z" fill="#F0F0F0" fill-opacity="0.64"/>
<path d="M1127.21 147.452C1039.49 64.8452 1288.48 118.176 1259.57 168.067C1294.34 205.126 1271.18 189.602 1253.99 162.463C1272.8 118.445 1050.41 68.6241 1127.21 147.452Z" fill="#F0F0F0" fill-opacity="0.64"/>
<path d="M709.824 753.333C834.987 766.737 960.557 746.001 1086.27 756.756C961.374 747.365 834.361 768.987 709.824 753.333Z" fill="#F0F0F0" fill-opacity="0.64"/>
<path d="M381.759 15.5713C394.429 14.8416 496.466 45.0036 456.963 50.1464C424.641 47.2188 433.359 52.9524 449.824 71.4909C445.413 65.766 418.327 50.8588 432.647 46.0374C490.787 46.9409 403.122 17.7258 381.759 15.5626V15.5713Z" fill="#F0F0F0" fill-opacity="0.64"/>
<path d="M79.0779 543.928C158.181 547.707 125.494 565.342 148.211 619.489C120.188 569.373 155.202 552.441 79.0779 543.928Z" fill="#F0F0F0" fill-opacity="0.64"/>
<path d="M1432.74 303.874C1364.09 250.004 1371.34 262.705 1394.93 335.209C1364.51 258.909 1365.76 244.775 1432.74 303.874Z" fill="#F0F0F0" fill-opacity="0.64"/>
<path d="M376.558 53.1783C323.976 46.6194 268.997 35.3174 218.291 56.2101C266.418 31.9207 326.286 44.6822 376.558 53.1783Z" fill="#F0F0F0" fill-opacity="0.64"/>
<path d="M15.4935 797.977C8.27713 793.129 6.01061 776.563 10.561 765.2C6.33192 836.956 23.7955 729.999 131.512 769.561C91.5742 761.091 36.1441 752.855 15.4935 797.977Z" fill="#F0F0F0" fill-opacity="0.64"/>
<path d="M265.437 873.112C298.019 873.078 438.752 874.389 339.312 889.992C419.361 872.965 295.405 876.831 265.437 873.112Z" fill="#F0F0F0" fill-opacity="0.64"/>
<path d="M46.7126 189.733C54.5717 178.361 63.9938 168.501 76.7333 161.586C67.589 178.613 54.0246 193.451 43.2477 209.644C44.9237 199.254 84.0713 151.5 46.7126 189.724V189.733Z" fill="#F0F0F0" fill-opacity="0.64"/>
<path d="M1469.84 253.488C1468.2 260.125 1463.52 267.64 1457.64 260.03C1454.27 250.291 1467.43 236.922 1469.84 253.488Z" fill="#F0F0F0" fill-opacity="0.64"/>
<path d="M626.475 754.732C553.008 743.343 565.183 742.535 495.45 755.626C515.641 742.7 593.693 742.074 626.475 754.732Z" fill="#F0F0F0" fill-opacity="0.64"/>
<path d="M1425.99 389.443C1411.76 329.458 1429.72 347.849 1473.09 342.254C1432.73 354.425 1415.62 324.254 1425.99 389.443Z" fill="#F0F0F0" fill-opacity="0.64"/>
<path d="M1484.93 359.767C1446.13 380.521 1440.91 398.773 1444.5 441.497C1436.48 399.624 1448.38 374.527 1484.93 359.767Z" fill="#F0F0F0" fill-opacity="0.64"/>
<path d="M1263.55 697.466C1223.2 674.575 1271.67 666.331 1294.67 669.84C1272.88 670.309 1228.16 671.743 1263.55 697.466Z" fill="#F0F0F0" fill-opacity="0.64"/>
<path d="M173.447 880.175C135.619 886.256 121.656 883.589 169.244 879.662C141.681 867.361 153.248 868.847 173.447 880.175Z" fill="#F0F0F0" fill-opacity="0.64"/>
<path d="M517.056 730.451C544.393 723.145 571.896 723.284 599.519 728.766C571.922 724.448 544.419 724.283 517.056 730.451Z" fill="#F0F0F0" fill-opacity="0.64"/>
<path d="M1255.35 754.071C1225.55 753.559 1193.73 755.053 1164.92 753.559C1194.63 754.071 1226.9 752.569 1255.35 754.071Z" fill="#F0F0F0" fill-opacity="0.64"/>
<path d="M13.7308 314.168C11.1169 357.752 5.46361 316.714 7.57382 298.097C11.4903 306.654 6.15833 349.039 13.7308 314.168Z" fill="#F0F0F0" fill-opacity="0.64"/>
<path d="M24.8375 410.24C32.4794 410.787 27.6598 417.946 25.8449 421.759C19.41 421.82 23.3612 413.533 24.8375 410.24Z" fill="#F0F0F0" fill-opacity="0.64"/>
<path d="M1432.99 303.57C1446.27 311.519 1461.54 321.865 1476.89 312.188C1467.76 322.551 1446.52 316.696 1432.99 303.57Z" fill="#F0F0F0" fill-opacity="0.64"/>
<path d="M1299.98 816.237C1320.43 814.005 1340.88 811.772 1361.33 809.539C1344.63 813.509 1317.24 816.307 1299.98 816.237Z" fill="#F0F0F0" fill-opacity="0.64"/>
<path d="M288.875 787.213C270.248 786.692 249.614 788.203 231.96 786.701C250.587 787.222 271.229 785.71 288.875 787.213Z" fill="#F0F0F0" fill-opacity="0.64"/>
<path d="M268.216 915.358C281.224 915.871 298.523 911.814 309.447 914.594C296.482 914.012 279.018 918.59 268.216 915.358Z" fill="#F0F0F0" fill-opacity="0.64"/>
<path d="M381.698 15.6494C363.974 14.633 345.573 14.3724 328.17 12.9825C345.825 13.3821 364.626 12.6089 381.698 15.6494Z" fill="#F0F0F0" fill-opacity="0.64"/>
<path d="M289.274 786.231C306.208 784.025 323.142 781.818 340.076 779.603C327.163 783.399 301.944 786.466 289.274 786.231Z" fill="#F0F0F0" fill-opacity="0.64"/>
<path d="M208.53 913.577C215.782 915.506 231.057 911.649 234.174 917C226.281 915.358 214.531 916.835 208.53 913.577Z" fill="#F0F0F0" fill-opacity="0.64"/>
<path d="M101.214 721.494C91.6524 720.521 77.9838 723.388 70.4287 720.469C80.0245 721.434 93.5021 718.576 101.214 721.494Z" fill="#F0F0F0" fill-opacity="0.64"/>
<path d="M1131.65 755.07C1118.55 757.034 1104.63 755.209 1091.23 756.035C1104.69 755.713 1118.21 755.409 1131.65 755.07Z" fill="#F0F0F0" fill-opacity="0.64"/>
<path d="M338.548 0.134036C351.07 0.533648 365.138 -0.630439 376.905 0.533648C364.383 0.134036 350.314 1.29812 338.548 0.134036Z" fill="#F0F0F0" fill-opacity="0.64"/>
<path d="M206.516 674.297C210.068 682.975 212.239 699.915 200.133 699.377C211.943 693.096 208.973 685.051 206.516 674.297Z" fill="#F0F0F0" fill-opacity="0.64"/>
<path d="M620.509 732.284C628.793 735.42 642.323 735.62 648.02 740.293C639.727 737.166 626.258 736.932 620.509 732.284Z" fill="#F0F0F0" fill-opacity="0.64"/>
<path d="M1101.05 20.6534C1090.26 20.2538 1077.93 21.4178 1067.9 20.2538C1078.69 20.6534 1091.02 19.4893 1101.05 20.6534Z" fill="#F0F0F0" fill-opacity="0.64"/>
<path d="M446.811 11.2885C436.659 9.59453 426.508 7.90053 416.356 6.21521C423.347 3.54823 437.693 10.5501 446.811 11.2885Z" fill="#F0F0F0" fill-opacity="0.64"/>
<path d="M1287.81 748.92C1296.14 743.543 1297.62 743.595 1292.14 734.412C1301.26 739.077 1296.77 749.667 1287.81 748.92Z" fill="#F0F0F0" fill-opacity="0.64"/>
<path d="M181.966 688.935C190.502 681.333 184.953 673.758 181.436 665.723C189.46 673.029 189.556 686.45 181.966 688.935Z" fill="#F0F0F0" fill-opacity="0.64"/>
<path d="M1269.65 820.155L1300.03 816.689C1289.92 817.827 1279.75 819.061 1269.65 820.155Z" fill="#F0F0F0" fill-opacity="0.64"/>
<path d="M1421.73 544.857C1422.23 534.893 1420.78 522.974 1422.23 513.965C1421.73 523.93 1423.17 535.849 1421.73 544.857Z" fill="#F0F0F0" fill-opacity="0.64"/>
<path d="M1439.92 529.177C1440.33 519.247 1439.14 507.745 1440.33 498.58C1439.93 508.597 1441.1 519.673 1439.92 529.177Z" fill="#F0F0F0" fill-opacity="0.64"/>
<path d="M393.326 768.266C385.641 769.152 374.769 774.921 368.62 773.313C376.384 772.393 386.865 766.694 393.326 768.266Z" fill="#F0F0F0" fill-opacity="0.64"/>
<path d="M61.3279 502.907C69.7601 505.287 77.9317 503.967 86.0165 501.291C78.0272 505.313 69.8382 506.373 61.3279 502.907Z" fill="#F0F0F0" fill-opacity="0.64"/>
<path d="M13.7308 314.168C15.676 306.333 12.8971 292.016 17.4128 287.403C16.1883 296.325 14.9552 305.247 13.7308 314.168Z" fill="#F0F0F0" fill-opacity="0.64"/>
<path d="M1258.58 656.314C1267.65 656.809 1278.7 655.367 1286.81 656.809C1277.73 656.314 1266.69 657.765 1258.58 656.314Z" fill="#F0F0F0" fill-opacity="0.64"/>
<path d="M206.863 728.305C215.261 728.818 225.69 727.324 233.098 728.818C224.83 728.297 213.75 729.817 206.863 728.305Z" fill="#F0F0F0" fill-opacity="0.64"/>
<path d="M1299.42 668.589C1306.54 668.633 1317.15 664.55 1322.56 666.713C1315.44 666.687 1304.86 670.709 1299.42 668.589Z" fill="#F0F0F0" fill-opacity="0.64"/>
<path d="M334.188 912.335C341.535 912.865 352.607 909.59 358.139 912.066C350.766 911.562 339.824 914.698 334.188 912.335Z" fill="#F0F0F0" fill-opacity="0.64"/>
<path d="M182.166 689.213C173.456 692.774 166.04 691.758 156.14 691.758C165.51 691.02 174.194 689.239 182.166 689.213Z" fill="#F0F0F0" fill-opacity="0.64"/>
<path d="M73.7545 780.42C81.7091 780.854 91.357 779.586 98.4866 780.854C90.5321 780.42 80.8841 781.688 73.7545 780.42Z" fill="#F0F0F0" fill-opacity="0.64"/>
<path d="M1295.42 634.874C1301.85 634.935 1311.79 630.869 1316.51 633.076C1310.3 632.998 1299.27 637.003 1295.42 634.874Z" fill="#F0F0F0" fill-opacity="0.64"/>
<path d="M0.565833 323.976C0.140316 331.569 1.38213 340.803 0.140316 347.597C0.548465 339.926 -0.658613 331.074 0.565833 323.976Z" fill="#F0F0F0" fill-opacity="0.64"/>
<path d="M260.443 906.289C267.807 906.749 276.978 905.411 283.456 906.749C276.092 906.298 266.922 907.627 260.443 906.289Z" fill="#F0F0F0" fill-opacity="0.64"/>
<path d="M243.145 897.549C250.44 897.984 259.41 896.724 265.888 897.984C258.516 897.567 249.91 898.8 243.145 897.549Z" fill="#F0F0F0" fill-opacity="0.64"/>
<path d="M1513.7 269.646C1514.1 262.323 1512.94 253.471 1514.1 246.886C1513.71 254.287 1514.85 262.783 1513.7 269.646Z" fill="#F0F0F0" fill-opacity="0.64"/>
<path d="M1131.65 755.07C1139.06 755.826 1151.49 751.717 1156.43 755.062C1148.18 755.07 1139.87 755.053 1131.65 755.07Z" fill="#F0F0F0" fill-opacity="0.64"/>
<path d="M1547.94 656.028C1541.56 655.524 1533.19 656.992 1527.77 655.515C1534.17 656.01 1542.49 654.551 1547.94 656.028Z" fill="#F0F0F0" fill-opacity="0.64"/>
<path d="M207.462 897.593C213.949 898.079 222.39 896.655 227.922 898.088C221.435 897.602 212.994 899.026 207.462 897.593Z" fill="#F0F0F0" fill-opacity="0.64"/>
<path d="M696.633 793.468C691.7 791.8 682.348 792.947 679.63 789.715C684.58 791.374 693.863 790.271 696.633 793.468Z" fill="#F0F0F0" fill-opacity="0.64"/>
<path d="M709.824 753.342C705.065 751.613 694.254 753.489 692.673 749.554C698.387 750.814 704.119 752.073 709.824 753.342Z" fill="#F0F0F0" fill-opacity="0.64"/>
<path d="M1287.91 749.05C1282.86 749.25 1273.76 754.853 1270.72 751.969C1276.4 751.1 1282.33 749.615 1287.91 749.05Z" fill="#F0F0F0" fill-opacity="0.64"/>
<path d="M1432.6 514C1432.19 519.656 1433.4 526.979 1432.18 531.818C1432.59 526.162 1431.38 518.839 1432.6 514Z" fill="#F0F0F0" fill-opacity="0.64"/>
<path d="M483.249 888.628C478.343 888.419 470.128 891.903 466.854 889.705C471.76 889.913 479.967 886.439 483.249 888.628Z" fill="#F0F0F0" fill-opacity="0.64"/>
<path d="M269.379 802.676C263.848 802.233 256.553 803.528 251.881 802.225C257.395 802.668 264.786 801.365 269.379 802.676Z" fill="#F0F0F0" fill-opacity="0.64"/>
<path d="M265.437 873.104C260.279 871.783 247.635 876.023 246.662 870.967C252.923 871.67 259.184 872.4 265.437 873.104Z" fill="#F0F0F0" fill-opacity="0.64"/>
<path d="M788.822 192.66C789.838 192.104 790.663 191.435 791.41 192.66C795.231 196.465 785.809 193.216 788.822 192.66Z" fill="#F0F0F0" fill-opacity="0.64"/>
<path d="M791.41 190.037C791.697 189.75 791.983 189.463 792.27 189.177C792.409 189.967 792.209 190.176 791.41 190.037Z" fill="#F0F0F0" fill-opacity="0.64"/>
</svg>
