<svg width="664" height="694" viewBox="0 0 664 694" fill="none" xmlns="http://www.w3.org/2000/svg">
<rect width="36" height="694" fill="#5ACD00"/>
<rect x="45" y="190" width="36" height="504" fill="#51B800"/>
<rect x="90" y="152" width="35" height="542" fill="#61DD00"/>
<rect x="314" y="141" width="36" height="553" fill="#5ACD00"/>
<rect x="359" y="190" width="36" height="504" fill="#5ACD00"/>
<rect x="404" y="248" width="36" height="446" fill="#5ACD00"/>
<rect x="449" y="277" width="36" height="417" fill="#5ACD00"/>
<rect x="494" y="178" width="36" height="516" fill="#61DD00"/>
<rect x="539" y="226" width="36" height="468" fill="#439800"/>
<rect x="584" y="203" width="35" height="491" fill="#3B8500"/>
<rect x="629" y="122" width="35" height="572" fill="#6CF400"/>
<rect x="135" y="122" width="35" height="572" fill="#6CF600"/>
<rect x="180" y="259" width="35" height="435" fill="#449B00"/>
<rect x="225" y="29" width="35" height="665" fill="#61DD00"/>
<rect x="269" y="91" width="36" height="603" fill="#5ACD00"/>
</svg>
