<svg width="129" height="126" viewBox="0 0 129 126" fill="none" xmlns="http://www.w3.org/2000/svg">
<circle cx="63" cy="63" r="59.5" fill="#5ACD00" stroke="white" stroke-width="7"/>
<circle cx="63" cy="63" r="27" fill="white"/>
<circle cx="108" cy="105" r="17.5" fill="white" stroke="#5ACD00" stroke-width="7"/>
<path d="M108 96L110.021 102.219H116.56L111.269 106.062L113.29 112.281L108 108.438L102.71 112.281L104.731 106.062L99.4405 102.219H105.979L108 96Z" fill="#5ACD00"/>
<path d="M58.2391 59.844H68.8969L67.3428 55.5296C67.2824 55.3526 67.172 55.1984 67.0258 55.0872L58.2391 59.844ZM58.2098 54.7232C58.5871 53.6736 59.4175 53 60.333 53H66.6353C67.5508 53 68.3812 53.6736 68.7593 54.7232L70.3127 59.0376C70.7789 60.332 70.0258 61.8 68.8969 61.8H58.0721C56.9433 61.8 56.1909 60.332 56.6564 59.0376L58.2105 54.7232H58.2098ZM49.7239 71.044H60.3608L58.8067 66.7296C58.7462 66.5526 58.6358 66.3985 58.4897 66.2872L49.7239 71.044ZM49.6937 65.9232C50.0718 64.8736 50.903 64.2 51.8177 64.2H58.0992C59.0147 64.2 59.8459 64.8736 60.2232 65.9232L61.7765 70.2376C62.2428 71.532 61.4905 73 60.3608 73H49.5553C48.4264 73 47.6741 71.532 48.1404 70.2376L49.6937 65.9232ZM77.4439 71.044H66.7351L75.5728 66.288C75.7112 66.3888 75.8225 66.5408 75.8921 66.7304L77.4447 71.044H77.4439ZM68.8297 64.2C67.9142 64.2 67.083 64.8736 66.7057 65.9232L65.1523 70.2376C64.6861 71.532 65.4384 73 66.5681 73H77.4447C78.5736 73 79.3259 71.532 78.8596 70.2376L77.3055 65.9232C76.9305 64.8736 76.1001 64.2 75.1846 64.2H68.8297Z" fill="#5ACD00"/>
</svg>
