<svg width="42" height="35" viewBox="0 0 42 35" fill="none" xmlns="http://www.w3.org/2000/svg">
<path id="Vector" fill-rule="evenodd" clip-rule="evenodd" d="M37.6495 0.239446C38.1659 0.0274293 38.7311 -0.0456937 39.2863 0.0276867C39.8415 0.101067 40.3664 0.318269 40.8064 0.656685C41.2463 0.9951 41.5852 1.44236 41.7878 1.95191C41.9905 2.46145 42.0494 3.01466 41.9584 3.55395L37.219 31.5968C36.7593 34.3018 33.7167 35.8531 31.1736 34.5057C29.0463 33.3784 25.8867 31.6416 23.0447 29.8295C21.6238 28.9224 17.271 26.0176 17.8059 23.9506C18.2657 22.1833 25.5795 15.542 29.7589 11.5936C31.3993 10.0423 30.6512 9.14744 28.714 10.5743C23.9015 14.1172 16.1802 19.5048 13.6266 21.0214C11.3739 22.3586 10.1995 22.5869 8.79522 22.3586C6.23328 21.9427 3.85731 21.2986 1.91809 20.5138C-0.702366 19.4538 -0.574896 15.9395 1.916 14.9162L37.6495 0.239446Z" fill="#5ACD00"/>
</svg>
