<svg width="1860" height="1453" viewBox="0 0 1860 1453" fill="none" xmlns="http://www.w3.org/2000/svg">
<path fill-rule="evenodd" clip-rule="evenodd" d="M265.476 1452.52V0H266.476V1452.52H265.476ZM1 1452.52V0H0V1452.52H1Z" fill="url(#paint0_linear_21_354)"/>
<path fill-rule="evenodd" clip-rule="evenodd" d="M796.65 1452.52V0H797.65V1452.52H796.65ZM532.175 1452.52V0H531.175V1452.52H532.175Z" fill="url(#paint1_linear_21_354)"/>
<path fill-rule="evenodd" clip-rule="evenodd" d="M1327.83 1452.52V0H1328.83V1452.52H1327.83ZM1063.35 1452.52V0H1062.35V1452.52H1063.35Z" fill="url(#paint2_linear_21_354)"/>
<path fill-rule="evenodd" clip-rule="evenodd" d="M531.064 1452.52V0H532.064V1452.52H531.064ZM266.588 1452.52V0H265.588V1452.52H266.588Z" fill="url(#paint3_linear_21_354)"/>
<path fill-rule="evenodd" clip-rule="evenodd" d="M1062.24 1452.52V0H1063.24V1452.52H1062.24ZM797.762 1452.52V0H796.762V1452.52H797.762Z" fill="url(#paint4_linear_21_354)"/>
<path fill-rule="evenodd" clip-rule="evenodd" d="M1593.41 1452.52V0H1594.41V1452.52H1593.41ZM1328.94 1452.52V0H1327.94V1452.52H1328.94Z" fill="url(#paint5_linear_21_354)"/>
<path fill-rule="evenodd" clip-rule="evenodd" d="M1859 1452.52V0H1860V1452.52H1859ZM1594.52 1452.52V0H1593.52V1452.52H1594.52Z" fill="url(#paint6_linear_21_354)"/>
<defs>
<linearGradient id="paint0_linear_21_354" x1="1726.76" y1="0" x2="1726.76" y2="1452.52" gradientUnits="userSpaceOnUse">
<stop offset="0.0685579" stop-color="#DFDFDF" stop-opacity="0"/>
<stop offset="0.279621" stop-color="#DFDFDF"/>
</linearGradient>
<linearGradient id="paint1_linear_21_354" x1="1726.76" y1="0" x2="1726.76" y2="1452.52" gradientUnits="userSpaceOnUse">
<stop offset="0.0685579" stop-color="#DFDFDF" stop-opacity="0"/>
<stop offset="0.279621" stop-color="#DFDFDF"/>
</linearGradient>
<linearGradient id="paint2_linear_21_354" x1="1726.76" y1="0" x2="1726.76" y2="1452.52" gradientUnits="userSpaceOnUse">
<stop offset="0.0685579" stop-color="#DFDFDF" stop-opacity="0"/>
<stop offset="0.279621" stop-color="#DFDFDF"/>
</linearGradient>
<linearGradient id="paint3_linear_21_354" x1="1726.76" y1="0" x2="1726.76" y2="1452.52" gradientUnits="userSpaceOnUse">
<stop offset="0.0685579" stop-color="#DFDFDF" stop-opacity="0"/>
<stop offset="0.279621" stop-color="#DFDFDF"/>
</linearGradient>
<linearGradient id="paint4_linear_21_354" x1="1726.76" y1="0" x2="1726.76" y2="1452.52" gradientUnits="userSpaceOnUse">
<stop offset="0.0685579" stop-color="#DFDFDF" stop-opacity="0"/>
<stop offset="0.279621" stop-color="#DFDFDF"/>
</linearGradient>
<linearGradient id="paint5_linear_21_354" x1="1726.76" y1="0" x2="1726.76" y2="1452.52" gradientUnits="userSpaceOnUse">
<stop offset="0.0685579" stop-color="#DFDFDF" stop-opacity="0"/>
<stop offset="0.279621" stop-color="#DFDFDF"/>
</linearGradient>
<linearGradient id="paint6_linear_21_354" x1="1726.76" y1="0" x2="1726.76" y2="1452.52" gradientUnits="userSpaceOnUse">
<stop offset="0.0685579" stop-color="#DFDFDF" stop-opacity="0"/>
<stop offset="0.279621" stop-color="#DFDFDF"/>
</linearGradient>
</defs>
</svg>
